:SAMPLES-PER-SECOND 30
:FULLY-SPECIFIED
:DEGREES
1
root  2.08139 40.9195 -3.87991 -115.029 -88.721 116.935
RightUpLeg  -1.87691 -9.68785 -9.12645
RightLeg  4.09686 -4.63139 2.84172
RightFoot  -1.30707 -0.232456 2.55198
RightToes  0.000482159 0.542163 -0.142577
Spine  4.90717 0.21198 -4.16877
Spine1  -2.45086 -0.60415 4.63064
HEad  -7.74331 -7.16351 -0.410799
LeftShoulder1  0.762989 -1.28499 -8.3792
LeftArm  -20.0813 14.6376 -9.52213
LeftForeArm  18.3924 -2.21709 0.0317928
LeftHand  -0.25398 0.0180481 5.50724
RightShoulder  0.296553 -1.2575 5.41655
RightArm  -22.3071 -9.50665 5.93785
RightForeArm  6.08439 3.92522 1.7455
RightHand  -0.638553 0.784864 -12.0998
LeftUpLeg  -0.62778 5.51894 3.76503
LeftLeg  2.21693 15.8876 -3.57593
LeftFoot  -2.07786 0.218262 -2.64344
LeftToes  1.06246e-005 4.65855e-005 -8.18502e-006
2
root  2.0737 40.9195 -3.88259 -116.19 -88.7032 118.097
RightUpLeg  -1.88752 -9.67554 -9.1203
RightLeg  4.13455 -4.61437 2.82187
RightFoot  -1.34537 -0.235692 2.6022
RightToes  0.000482159 0.542163 -0.142577
Spine  4.8467 0.233863 -4.21075
Spine1  -2.32426 -0.597999 4.7099
HEad  -7.85623 -7.21174 -0.445781
LeftShoulder1  0.762989 -1.21216 -8.46804
LeftArm  -20.128 14.5183 -9.52746
LeftForeArm  18.4828 -2.1891 0.0453157
LeftHand  -0.25398 0.0180481 5.50724
RightShoulder  0.276012 -1.39944 5.31772
RightArm  -22.3942 -9.41528 6.04256
RightForeArm  6.28828 3.93041 1.7258
RightHand  -0.633926 0.824216 -11.9422
LeftUpLeg  -0.613854 5.54669 3.78079
LeftLeg  2.22543 15.8843 -3.60215
LeftFoot  -2.10581 0.217095 -2.62528
LeftToes  1.06246e-005 4.65855e-005 -8.18502e-006
3
root  2.05781 40.9195 -3.88781 -118.57 -88.6867 120.466
RightUpLeg  -1.87878 -9.63606 -9.08496
RightLeg  4.17227 -4.5946 2.78386
RightFoot  -1.37984 -0.236966 2.62196
RightToes  0.000482159 0.542163 -0.142577
Spine  4.79659 0.270232 -4.2614
Spine1  -2.20999 -0.583918 4.82942
HEad  -7.97028 -7.26048 -0.513245
LeftShoulder1  0.762989 -1.16321 -8.63216
LeftArm  -20.1056 14.3905 -9.4642
LeftForeArm  18.5976 -2.16548 0.0334216
LeftHand  -0.25398 0.0180481 5.50724
RightShoulder  0.249905 -1.57787 5.16078
RightArm  -22.5545 -9.30788 6.20099
RightForeArm  6.56863 3.93147 1.68416
RightHand  -0.632929 0.908106 -11.7742
LeftUpLeg  -0.572691 5.605 3.82764
LeftLeg  2.24307 15.877 -3.6403
LeftFoot  -2.14165 0.215438 -2.5995
LeftToes  1.06246e-005 4.65855e-005 -8.18502e-006
4
root  2.03968 40.9195 -3.89186 -120.629 -88.6874 122.517
RightUpLeg  -1.85479 -9.59705 -9.04192
RightLeg  4.17517 -4.58725 2.76011
RightFoot  -1.38565 -0.235072 2.59258
RightToes  0.000482159 0.542163 -0.142577
Spine  4.76633 0.281001 -4.26118
Spine1  -2.1873 -0.578226 4.86228
HEad  -7.98366 -7.26956 -0.539817
LeftShoulder1  0.762989 -1.18336 -8.7165
LeftArm  -20.0287 14.3766 -9.3854
LeftForeArm  18.6582 -2.18453 0.00327717
LeftHand  -0.25398 0.0180481 5.50724
RightShoulder  0.246306 -1.59898 5.10861
RightArm  -22.6556 -9.27462 6.24743
RightForeArm  6.68529 3.91237 1.65038
RightHand  -0.632435 0.927899 -11.7307
LeftUpLeg  -0.541304 5.65955 3.88227
LeftLeg  2.27754 15.861 -3.65986
LeftFoot  -2.17357 0.21612 -2.61012
LeftToes  1.06246e-005 4.65855e-005 -8.18502e-006
5
root  2.02195 40.9195 -3.89231 -121.281 -88.7013 123.184
RightUpLeg  -1.84039 -9.58653 -9.02318
RightLeg  4.16339 -4.5823 2.76418
RightFoot  -1.39009 -0.233968 2.57623
RightToes  0.000482159 0.542163 -0.142577
Spine  4.70183 0.257817 -4.19278
Spine1  -2.16747 -0.582529 4.76162
HEad  -7.95102 -7.28453 -0.507492
LeftShoulder1  0.760829 -1.20169 -8.64093
LeftArm  -20.0169 14.4255 -9.40658
LeftForeArm  18.7064 -2.25631 -0.00881608
LeftHand  -0.25398 0.0180481 5.50724
RightShoulder  0.257573 -1.52313 5.19224
RightArm  -22.6163 -9.27218 6.1716
RightForeArm  6.59258 3.87042 1.65628
RightHand  -0.638947 0.947398 -11.8151
LeftUpLeg  -0.539383 5.68847 3.91582
LeftLeg  2.30942 15.8392 -3.66471
LeftFoot  -2.21022 0.218221 -2.6428
LeftToes  1.06246e-005 4.65855e-005 -8.18502e-006
6
root  2.00289 40.9195 -3.88992 -120.902 -88.7164 122.834
RightUpLeg  -1.84033 -9.59869 -9.02639
RightLeg  4.1728 -4.56172 2.77961
RightFoot  -1.38983 -0.23234 2.55543
RightToes  0.000482159 0.542163 -0.142577
Spine  4.5867 0.228297 -4.10139
Spine1  -2.0761 -0.586774 4.61963
HEad  -7.95406 -7.31267 -0.486101
LeftShoulder1  0.751765 -1.17245 -8.51885
LeftArm  -20.0615 14.4449 -9.49057
LeftForeArm  18.7721 -2.36705 -0.0116854
LeftHand  -0.25398 0.0180481 5.50724
RightShoulder  0.261067 -1.51016 5.29484
RightArm  -22.5089 -9.23813 6.08754
RightForeArm  6.44981 3.83428 1.69117
RightHand  -0.660958 1.09298 -11.9582
LeftUpLeg  -0.54351 5.6896 3.91813
LeftLeg  2.30715 15.8336 -3.66521
LeftFoot  -2.22854 0.21638 -2.61416
LeftToes  1.06246e-005 4.65855e-005 -8.18502e-006
7
root  1.983 40.9195 -3.88818 -120.345 -88.7219 122.295
RightUpLeg  -1.84906 -9.61842 -9.03531
RightLeg  4.22482 -4.52095 2.78891
RightFoot  -1.37215 -0.22419 2.43543
RightToes  0.000482159 0.542163 -0.142577
Spine  4.48028 0.204637 -4.06585
Spine1  -1.96969 -0.600664 4.56399
HEad  -8.00185 -7.27513 -0.510182
LeftShoulder1  0.742086 -1.1174 -8.49718
LeftArm  -20.0361 14.4423 -9.49111
LeftForeArm  18.7918 -2.46507 -0.0402921
LeftHand  -0.25398 0.0180481 5.50724
RightShoulder  0.259595 -1.52807 5.34416
RightArm  -22.448 -9.20335 6.0267
RightForeArm  6.39967 3.85109 1.71884
RightHand  -0.677823 1.22822 -12.0232
LeftUpLeg  -0.543879 5.6665 3.89134
LeftLeg  2.2996 15.8588 -3.64721
LeftFoot  -2.18273 0.20714 -2.47043
LeftToes  1.06246e-005 4.65855e-005 -8.18502e-006
8
root  1.96882 40.9195 -3.88772 -119.483 -88.7134 121.424
RightUpLeg  -1.87047 -9.64996 -9.05525
RightLeg  4.32671 -4.47484 2.79212
RightFoot  -1.31317 -0.20961 2.21736
RightToes  0.000482159 0.542163 -0.142577
Spine  4.47202 0.167842 -4.11463
Spine1  -1.94941 -0.644391 4.60345
HEad  -8.07609 -7.16228 -0.503925
LeftShoulder1  0.732395 -1.04723 -8.53291
LeftArm  -19.9155 14.4788 -9.40228
LeftForeArm  18.7367 -2.49373 -0.0872487
LeftHand  -0.25398 0.0180481 5.50724
RightShoulder  0.272335 -1.43873 5.39874
RightArm  -22.4086 -9.21749 5.91147
RightForeArm  6.39182 3.92775 1.74076
RightHand  -0.661989 1.1322 -11.9082
LeftUpLeg  -0.570946 5.63077 3.84406
LeftLeg  2.3699 15.9022 -3.60008
LeftFoot  -2.07213 0.193258 -2.25453
LeftToes  1.06246e-005 4.65855e-005 -8.18502e-006
9
root  1.96547 40.9195 -3.88783 -117.851 -88.6966 119.759
RightUpLeg  -1.90108 -9.69567 -9.09462
RightLeg  4.4616 -4.44555 2.79203
RightFoot  -1.24939 -0.197573 2.04019
RightToes  0.000482159 0.542163 -0.142577
Spine  4.58227 0.116531 -4.18489
Spine1  -2.014 -0.702047 4.63561
HEad  -8.17072 -7.10444 -0.409333
LeftShoulder1  0.716269 -0.960674 -8.47488
LeftArm  -19.7957 14.5591 -9.35987
LeftForeArm  18.6983 -2.46274 -0.119326
LeftHand  -0.25398 0.0180481 5.50724
RightShoulder  0.294863 -1.28203 5.49511
RightArm  -22.2764 -9.24377 5.72938
RightForeArm  6.32081 3.97658 1.78577
RightHand  -0.633192 0.950384 -11.7059
LeftUpLeg  -0.634924 5.60707 3.79772
LeftLeg  2.53788 15.9364 -3.5491
LeftFoot  -1.95458 0.180308 -2.05315
LeftToes  1.06246e-005 4.65855e-005 -8.18502e-006
10
root  1.96919 40.9195 -3.88842 -115.983 -88.6832 117.849
RightUpLeg  -1.92044 -9.73498 -9.13625
RightLeg  4.57526 -4.44122 2.78616
RightFoot  -1.22428 -0.194387 2.00152
RightToes  0.000482159 0.542163 -0.142577
Spine  4.71446 0.0846066 -4.1974
Spine1  -2.07478 -0.727547 4.59344
HEad  -8.23688 -7.17056 -0.315592
LeftShoulder1  0.703398 -0.919775 -8.31577
LeftArm  -19.7055 14.6537 -9.37806
LeftForeArm  18.756 -2.44181 -0.139944
LeftHand  -0.25398 0.0180481 5.50724
RightShoulder  0.305007 -1.2153 5.55919
RightArm  -22.0375 -9.21414 5.5576
RightForeArm  6.18339 3.85865 1.84332
RightHand  -0.634797 1.00149 -11.6463
LeftUpLeg  -0.695045 5.60854 3.77344
LeftLeg  2.70831 15.9533 -3.52625
LeftFoot  -1.87933 0.171729 -1.91976
LeftToes  1.06246e-005 4.65855e-005 -8.18502e-006
11
root  1.97327 40.9195 -3.88943 -114.787 -88.6757 116.632
RightUpLeg  -1.92333 -9.75307 -9.16171
RightLeg  4.62198 -4.44177 2.78322
RightFoot  -1.23859 -0.196436 2.04498
RightToes  0.000482159 0.542163 -0.142577
Spine  4.75475 0.0916025 -4.15262
Spine1  -2.08145 -0.705581 4.51176
HEad  -8.20624 -7.23735 -0.358011
LeftShoulder1  0.708182 -0.981583 -8.19305
LeftArm  -19.608 14.755 -9.31826
LeftForeArm  18.8941 -2.47758 -0.16633
LeftHand  -0.25398 0.0180481 5.50724
RightShoulder  0.298818 -1.25773 5.53169
RightArm  -21.8114 -9.12353 5.42466
RightForeArm  6.01962 3.54109 1.86703
RightHand  -0.659327 1.17824 -11.7841
LeftUpLeg  -0.718617 5.61742 3.7661
LeftLeg  2.77968 15.9629 -3.53098
LeftFoot  -1.84579 0.168145 -1.86402
LeftToes  1.06246e-005 4.65855e-005 -8.18502e-006
12
root  1.97804 40.9195 -3.89197 -114.105 -88.6661 115.961
RightUpLeg  -1.93478 -9.76364 -9.1783
RightLeg  4.62143 -4.42717 2.78732
RightFoot  -1.26897 -0.197549 2.07455
RightToes  0.000482159 0.542163 -0.142577
Spine  4.71415 0.11488 -4.10803
Spine1  -2.06216 -0.668828 4.44588
HEad  -8.11417 -7.1917 -0.536702
LeftShoulder1  0.72011 -1.06757 -8.15614
LeftArm  -19.5614 14.8454 -9.16018
LeftForeArm  19.0909 -2.56453 -0.173769
LeftHand  -0.25398 0.0180481 5.50724
RightShoulder  0.287738 -1.32865 5.44626
RightArm  -21.7356 -9.02125 5.3099
RightForeArm  5.88433 3.19646 1.8361
RightHand  -0.658092 1.105 -11.8867
LeftUpLeg  -0.721786 5.61093 3.75457
LeftLeg  2.7455 15.9577 -3.54617
LeftFoot  -1.83198 0.168542 -1.8702
LeftToes  1.06246e-005 4.65855e-005 -8.18502e-006
13
root  1.98844 40.9195 -3.8971 -112.661 -88.6605 114.55
RightUpLeg  -1.96976 -9.77931 -9.19435
RightLeg  4.6146 -4.4248 2.80127
RightFoot  -1.30025 -0.197439 2.08552
RightToes  0.000482159 0.542163 -0.142577
Spine  4.69667 0.12606 -4.09308
Spine1  -2.06121 -0.650325 4.40599
HEad  -8.0772 -7.10964 -0.728797
LeftShoulder1  0.717111 -1.06316 -8.09978
LeftArm  -19.6473 14.9002 -9.06698
LeftForeArm  19.3095 -2.66899 -0.135817
LeftHand  -0.25398 0.0180481 5.50724
RightShoulder  0.271939 -1.43162 5.32647
RightArm  -21.8602 -8.97157 5.24562
RightForeArm  5.89844 3.05394 1.76989
RightHand  -0.625984 0.836557 -11.7718
LeftUpLeg  -0.728959 5.59036 3.73539
LeftLeg  2.64478 15.9091 -3.56894
LeftFoot  -1.82155 0.170682 -1.90347
LeftToes  1.06246e-005 4.65855e-005 -8.18502e-006
14
root  2.00448 40.9195 -3.90452 -109.219 -88.6822 111.155
RightUpLeg  -2.00785 -9.78968 -9.19609
RightLeg  4.58079 -4.50329 2.81907
RightFoot  -1.31967 -0.199242 2.12629
RightToes  0.000482159 0.542163 -0.142577
Spine  4.7326 0.117653 -4.0981
Spine1  -2.09573 -0.657068 4.38472
HEad  -8.11536 -7.09312 -0.837078
LeftShoulder1  0.70296 -1.01375 -7.94122
LeftArm  -19.7634 14.9611 -9.11795
LeftForeArm  19.3944 -2.7281 -0.0893963
LeftHand  -0.25398 0.0180481 5.50724
RightShoulder  0.248797 -1.58606 5.15648
RightArm  -22.086 -9.01933 5.25078
RightForeArm  6.06475 3.13175 1.70305
RightHand  -0.611236 0.777125 -11.6034
LeftUpLeg  -0.740718 5.56608 3.72201
LeftLeg  2.48438 15.8081 -3.60114
LeftFoot  -1.79822 0.172576 -1.93292
LeftToes  1.06246e-005 4.65855e-005 -8.18502e-006
15
root  2.02184 40.9195 -3.91239 -103.309 -88.7316 105.312
RightUpLeg  -2.02952 -9.79523 -9.17613
RightLeg  4.47596 -4.68929 2.84375
RightFoot  -1.31507 -0.202948 2.19642
RightToes  0.000482159 0.542163 -0.142577
Spine  4.75034 0.0844737 -4.11331
Spine1  -2.15419 -0.69037 4.3726
HEad  -8.14334 -7.10386 -0.838649
LeftShoulder1  0.697476 -1.0351 -7.72679
LeftArm  -19.7413 15.0975 -9.19773
LeftForeArm  19.2314 -2.70313 -0.0869449
LeftHand  -0.25398 0.0180481 5.50724
RightShoulder  0.230554 -1.70699 4.99674
RightArm  -22.2027 -9.12729 5.22492
RightForeArm  6.08544 3.22939 1.67745
RightHand  -0.631564 0.964042 -11.6514
LeftUpLeg  -0.762942 5.53404 3.71497
LeftLeg  2.27708 15.6863 -3.62951
LeftFoot  -1.74934 0.174416 -1.96154
LeftToes  1.06246e-005 4.65855e-005 -8.18502e-006
